<svg width="64" height="64" viewBox="0 0 64 64" fill="none" xmlns="http://www.w3.org/2000/svg">
<path d="M21.3022 24.8577V30.8996H19.2969V24.8577H21.3022ZM42.6702 24.8577V30.8996H40.678V24.8577H42.6702Z" fill="#EA3437"/>
<path d="M13.9961 37.8662V34.1551C13.9961 33.1655 14.5039 32.293 15.3113 31.681C16.0404 31.1211 17.0431 30.7695 18.1239 30.7695H45.8724C46.9532 30.7695 47.9558 31.1211 48.685 31.681C49.4923 32.3061 50.0002 33.1785 50.0002 34.1551V37.8662H47.9949V34.1551C47.9949 33.8296 47.7996 33.504 47.474 33.2566C47.0704 32.9571 46.5104 32.7618 45.8724 32.7618H18.1239C17.4858 32.7618 16.9259 32.9571 16.5222 33.2566C16.1967 33.504 16.0014 33.8165 16.0014 34.1551V37.8662H13.9961Z" fill="#EA3437"/>
<path d="M32.9962 31.7722V37.8662H31.0039V31.7722H32.9962Z" fill="#EA3437"/>
<path d="M35.0154 23.243H48.9873C49.1176 20.4825 48.154 18.1126 45.5757 16.6282L45.4455 16.55L45.3414 16.6542C44.4559 17.5787 43.271 18.0866 42.0079 18.0866C40.7318 18.0866 39.5469 17.5787 38.6744 16.6542L38.5703 16.55L38.44 16.6282C35.8488 18.1126 34.8852 20.4825 35.0154 23.243Z" fill="#EA3437"/>
<path d="M42.0054 17.1492C39.6876 17.1492 37.8125 15.2741 37.8125 12.9563C37.8125 10.6385 39.6876 8.76343 42.0054 8.76343C44.3232 8.76343 46.1983 10.6385 46.1983 12.9563C46.1983 15.2611 44.3102 17.1492 42.0054 17.1492Z" fill="#EA3437"/>
<path d="M13.0076 23.243H26.9795C27.1097 20.4825 26.1462 18.1126 23.5679 16.6282L23.4377 16.55L23.3335 16.6542C22.4481 17.5787 21.2632 18.0866 20.0001 18.0866C18.724 18.0866 17.539 17.5787 16.6666 16.6542L16.5624 16.55L16.4322 16.6282C13.841 18.1126 12.8774 20.4825 13.0076 23.243Z" fill="#EA3437"/>
<path d="M20.0015 17.1492C17.6837 17.1492 15.8086 15.2741 15.8086 12.9563C15.8086 10.6385 17.6837 8.76343 20.0015 8.76343C22.3193 8.76343 24.1944 10.6385 24.1944 12.9563C24.1944 15.2611 22.3193 17.1492 20.0015 17.1492Z" fill="#EA3437"/>
<path d="M42.0055 55.2367H55.9905C56.1207 52.4762 55.1571 50.1063 52.5789 48.6218L52.4487 48.5437L52.3445 48.6479C51.459 49.5724 50.2741 50.0802 49.011 50.0802C47.7349 50.0802 46.55 49.5724 45.6776 48.6479L45.5734 48.5437L45.4432 48.6218C42.8519 50.1193 41.8883 52.4762 42.0055 55.2367Z" fill="#EA3437"/>
<path d="M48.9976 49.1555C46.6798 49.1555 44.8047 47.2805 44.8047 44.9627C44.8047 42.6449 46.6798 40.7698 48.9976 40.7698C51.3154 40.7698 53.1904 42.6449 53.1904 44.9627C53.1904 47.2674 51.3154 49.1555 48.9976 49.1555Z" fill="#EA3437"/>
<path d="M8.00761 55.2367H21.9795C22.1097 52.4762 21.1462 50.1063 18.5679 48.6218L18.4377 48.5437L18.3336 48.6479C17.4481 49.5724 16.2632 50.0802 15.0001 50.0802C13.724 50.0802 12.539 49.5724 11.6666 48.6479L11.5624 48.5437L11.4322 48.6218C8.84098 50.1193 7.8774 52.4762 8.00761 55.2367Z" fill="#EA3437"/>
<path d="M15.0015 49.1555C12.6837 49.1555 10.8086 47.2674 10.8086 44.9627C10.8086 42.6449 12.6837 40.7698 15.0015 40.7698C17.3193 40.7698 19.1944 42.6449 19.1944 44.9627C19.1944 47.2674 17.3193 49.1555 15.0015 49.1555Z" fill="#EA3437"/>
<path d="M25.0154 55.2367H38.9873C39.1176 52.4762 38.154 50.1063 35.5757 48.6218L35.4455 48.5437L35.3414 48.6479C34.4559 49.5724 33.271 50.0802 32.0079 50.0802C30.7318 50.0802 29.5469 49.5724 28.6744 48.6479L28.5703 48.5437L28.44 48.6218C25.8488 50.1193 24.8852 52.4762 25.0154 55.2367Z" fill="#EA3437"/>
<path d="M32.0054 49.1555C29.6876 49.1555 27.8125 47.2805 27.8125 44.9627C27.8125 42.6449 29.6876 40.7698 32.0054 40.7698C34.3232 40.7698 36.1983 42.6449 36.1983 44.9627C36.1983 47.2674 34.3102 49.1555 32.0054 49.1555Z" fill="#EA3437"/>
</svg>
