<svg width="44" height="50" viewBox="0 0 44 50" fill="none" xmlns="http://www.w3.org/2000/svg">
<g clip-path="url(#clip0_559_4346)">
<path d="M21.981 10.9234C21.9866 10.9234 21.9922 10.9234 22.0033 10.9234C22.0089 10.9234 22.0145 10.9234 22.0257 10.9234C24.6691 10.9234 26.8095 8.49104 26.8095 5.4871C26.8095 5.01079 26.7537 4.54718 26.6531 4.10898C26.1222 1.76552 24.25 0.0317507 22.0201 0.0317507C22.0144 0.0317507 22.0089 0.0317507 21.9977 0.0317507C21.9921 0.0317507 21.9865 0.0317507 21.9754 0.0317507C19.3319 0.0253998 17.1914 2.46411 17.1914 5.4617C17.1914 5.93801 17.2473 6.40162 17.3479 6.83983C17.8788 9.18963 19.751 10.9234 21.981 10.9234Z" fill="#EA3437"/>
<path d="M22.0262 10.9552H21.9815C19.7842 10.9552 17.8679 9.2661 17.3214 6.84771C17.217 6.39292 17.1641 5.92652 17.1641 5.4617C17.1641 2.45008 19.3181 0 21.9656 0H22.0207C24.2174 0 26.1337 1.6864 26.6808 4.10104C26.7851 4.55595 26.838 5.02235 26.838 5.48711C26.8381 8.50216 24.6795 10.9552 22.0262 10.9552ZM21.9656 0.0635082C19.3488 0.0635082 17.2199 2.48514 17.2199 5.4617C17.2199 5.92112 17.2723 6.38206 17.3755 6.83183C17.9156 9.22228 19.8097 10.8917 21.9816 10.8917H22.0263C24.6487 10.8917 26.7823 8.46716 26.7823 5.48711C26.7823 5.02775 26.7299 4.56675 26.6268 4.11698C26.086 1.73034 24.1919 0.0635082 22.0207 0.0635082H21.9656Z" fill="#EA3437"/>
<path d="M27.0384 13.2034H25.8424L24.6464 19.986H23.2324L22.8636 15.4325C22.9754 14.7403 23.2381 14.0925 23.5175 13.4129C23.5175 13.4129 23.5677 13.2923 23.5956 13.2288C23.5901 13.2288 23.5845 13.2288 23.5789 13.2288C23.5845 13.2224 23.5845 13.2097 23.5901 13.2034C21.9134 13.2034 22.0476 13.2034 20.4045 13.2034C20.4101 13.2097 20.4101 13.2161 20.4157 13.2288H20.41C20.438 13.2923 20.4883 13.4129 20.4883 13.4129C20.7342 14.0036 20.9633 14.5688 21.0918 15.1658C21.1086 15.2483 21.1254 15.3309 21.1366 15.4135L20.7677 19.9924H19.3538L18.1578 13.2097H16.9619C15.1456 13.2097 13.6758 14.88 13.6758 16.944V27.823C13.6758 29.887 15.1456 31.5572 16.9619 31.5572H17.3811V47.3644C17.3811 48.8188 18.4206 50 19.7004 50C20.8908 50 21.8744 48.9775 22.0029 47.6566C22.1315 48.9712 23.1151 50 24.3055 50C25.5853 50 26.6248 48.8188 26.6248 47.3644V31.5445H27.044C28.8603 31.5445 30.3301 29.8742 30.3301 27.8102V16.9313C30.319 14.8736 28.8491 13.2034 27.0384 13.2034Z" fill="#EA3437"/>
<path d="M34.3931 10.9234C34.3987 10.9234 34.4042 10.9234 34.4155 10.9234C34.421 10.9234 34.4266 10.9234 34.4377 10.9234C37.0812 10.9234 39.2218 8.49103 39.2218 5.48709C39.2218 5.01078 39.1659 4.54717 39.0652 4.10896C38.5343 1.76551 36.6621 0.0317383 34.4322 0.0317383C34.4266 0.0317383 34.421 0.0317383 34.4098 0.0317383C34.4042 0.0317383 34.3987 0.0317383 34.3876 0.0317383C31.7441 0.0317383 29.6035 2.4641 29.6035 5.46804C29.6035 5.94435 29.6594 6.40796 29.7601 6.84617C30.291 9.18962 32.1632 10.9234 34.3931 10.9234Z" fill="#EA3437"/>
<path d="M34.4384 10.9552H34.3937C32.1969 10.9552 30.2806 9.26883 29.7336 6.85412C29.6292 6.3994 29.5762 5.933 29.5762 5.46806C29.5762 2.45294 31.7348 0 34.3882 0H34.4328C36.6296 0 38.5459 1.6864 39.093 4.10104C39.1974 4.55576 39.2504 5.02216 39.2504 5.48711C39.2503 8.50222 37.0917 10.9552 34.4384 10.9552ZM34.3881 0.0635717C31.7656 0.0635717 29.632 2.488 29.632 5.46812C29.632 5.92766 29.6844 6.38861 29.7876 6.83824C30.3284 9.22495 32.2224 10.8918 34.3936 10.8918H34.4383C37.0608 10.8918 39.1944 8.46729 39.1944 5.48723C39.1944 5.02769 39.142 4.56675 39.0388 4.11711C38.4981 1.73041 36.604 0.0635717 34.4328 0.0635717H34.3881Z" fill="#EA3437"/>
<path d="M39.4505 13.2034H38.2545L37.0585 19.986H35.6446L35.2756 15.4325C35.3874 14.7403 35.6501 14.0925 35.9296 13.4129C35.9296 13.4129 35.9799 13.2923 36.0078 13.2288C36.0021 13.2288 35.9966 13.2288 35.991 13.2288C35.9966 13.2224 35.9966 13.2097 36.0021 13.2034C34.3255 13.2034 34.4596 13.2034 32.8165 13.2034C32.8222 13.2097 32.8222 13.2161 32.8278 13.2288H32.8222C32.8501 13.2923 32.9003 13.4129 32.9003 13.4129C33.1462 14.0036 33.3753 14.5688 33.5039 15.1658C33.5208 15.2483 33.5375 15.3309 33.5487 15.4135L33.1797 19.9924H31.8943V27.823C31.8943 29.7029 31.0617 31.3667 29.793 32.3574V47.3644C29.793 48.8188 30.8325 50 32.1123 50C33.3027 50 34.2863 48.9775 34.4149 47.6566C34.5434 48.9712 35.5271 50 36.7174 50C37.9972 50 39.0367 48.8188 39.0367 47.3644V31.5445H39.4559C41.2722 31.5445 42.7421 29.8742 42.7421 27.8102V16.9313C42.731 14.8736 41.2612 13.2034 39.4505 13.2034Z" fill="#EA3437"/>
<path d="M9.56688 10.9234C9.57247 10.9234 9.57806 10.9234 9.58923 10.9234C9.59482 10.9234 9.60041 10.9234 9.61159 10.9234C12.2551 10.9234 14.3955 8.49103 14.3955 5.48709C14.3955 5.01078 14.3396 4.54717 14.239 4.10896C13.7081 1.76551 11.8359 0.0317383 9.606 0.0317383C9.60041 0.0317383 9.59482 0.0317383 9.58364 0.0317383C9.57805 0.0317383 9.57247 0.0317383 9.56129 0.0317383C6.91782 0.0317383 4.77734 2.4641 4.77734 5.46804C4.77734 5.94435 4.83323 6.40796 4.93383 6.84617C5.46476 9.18962 7.33698 10.9234 9.56688 10.9234Z" fill="#EA3437"/>
<path d="M9.61219 10.9552H9.56748C7.37072 10.9552 5.45446 9.26877 4.90738 6.85406C4.80293 6.39928 4.75 5.93293 4.75 5.46805C4.75 2.45294 6.90859 0 9.56189 0H9.6066C11.8034 0 13.7197 1.6864 14.2668 4.10104C14.3712 4.55589 14.4241 5.02223 14.4241 5.48711C14.4241 8.50216 12.2654 10.9552 9.61219 10.9552ZM9.56189 0.0635082C6.93938 0.0635082 4.80589 2.48793 4.80589 5.46805C4.80589 5.92754 4.85825 6.38854 4.96148 6.83818C5.50219 9.22482 7.39626 10.8917 9.56748 10.8917H9.61219C12.2346 10.8917 14.3682 8.46716 14.3682 5.48711C14.3682 5.02769 14.3158 4.56668 14.2126 4.11698C13.6719 1.73034 11.7778 0.0635082 9.60654 0.0635082H9.56189Z" fill="#EA3437"/>
<path d="M12.1055 27.8166V19.986H10.8201L10.4513 15.4325C10.563 14.7403 10.8257 14.0925 11.1051 13.4129C11.1051 13.4129 11.1554 13.2923 11.1834 13.2288C11.1778 13.2288 11.1722 13.2288 11.1666 13.2288C11.1722 13.2224 11.1722 13.2097 11.1778 13.2034C9.50117 13.2034 9.6353 13.2034 7.99222 13.2034C7.99781 13.2097 7.99781 13.2161 8.0034 13.2288H7.99781C8.02575 13.2923 8.07605 13.4129 8.07605 13.4129C8.32196 14.0036 8.55109 14.5688 8.67963 15.1658C8.6964 15.2483 8.71317 15.3309 8.72434 15.4135L8.35549 19.9924H6.94154L5.74555 13.2097H4.54398C2.72765 13.2097 1.25781 14.88 1.25781 16.944V27.823C1.25781 29.887 2.72765 31.5572 4.54398 31.5572H4.96313V47.3644C4.96313 48.8188 6.00264 50 7.28245 50C8.47285 50 9.45647 48.9775 9.58501 47.6566C9.71355 48.9712 10.6972 50 11.8876 50C13.1674 50 14.2069 48.8188 14.2069 47.3644V32.3511C12.9382 31.354 12.1055 29.6964 12.1055 27.8166Z" fill="#EA3437"/>
</g>
<defs>
<clipPath id="clip0_559_4346">
<rect width="44" height="50" fill="white"/>
</clipPath>
</defs>
</svg>
