<?xml version="1.0" standalone="no"?>
<!DOCTYPE svg PUBLIC "-//W3C//DTD SVG 20010904//EN"
 "http://www.w3.org/TR/2001/REC-SVG-20010904/DTD/svg10.dtd">
<svg version="1.0" xmlns="http://www.w3.org/2000/svg"
 width="4168.000000pt" height="4168.000000pt" viewBox="0 0 4168.000000 4168.000000"
 preserveAspectRatio="xMidYMid meet">

<g transform="translate(0.000000,4168.000000) scale(0.100000,-0.100000)"
fill="#000000" stroke="none">
<path d="M0 20840 l0 -20840 20840 0 20840 0 0 20840 0 20840 -20840 0 -20840
0 0 -20840z m14955 1275 c89 -24 232 -97 300 -152 128 -104 229 -260 274 -422
37 -133 43 -257 38 -776 -5 -535 -7 -556 -68 -715 -76 -198 -242 -367 -437
-446 -125 -50 -177 -59 -347 -59 -171 1 -229 11 -349 62 -163 68 -312 208
-389 365 -100 203 -110 294 -104 943 5 536 6 556 68 717 57 146 176 294 309
382 65 43 190 93 280 112 88 18 343 12 425 -11z m2095 -4 c114 -34 239 -103
320 -178 116 -107 185 -217 233 -368 44 -140 49 -227 45 -790 -4 -495 -5 -524
-26 -597 -51 -185 -105 -281 -228 -405 -80 -80 -104 -97 -196 -143 -322 -157
-728 -107 -971 120 -121 113 -196 241 -243 416 -18 64 -19 114 -19 679 l0 610
28 89 c48 153 109 259 207 357 118 119 241 187 405 223 104 23 344 16 445 -13z
m-5043 -816 c189 -440 347 -803 351 -807 4 -3 164 358 357 803 l349 809 173 0
173 0 0 -1265 0 -1265 -175 0 -175 0 -2 871 -3 872 -282 -649 -282 -649 -129
-3 -129 -3 -110 253 c-61 139 -186 428 -279 642 l-169 389 -3 -862 -2 -861
-180 0 -180 0 0 1265 0 1265 176 -2 176 -3 345 -800z m7153 781 c36 -10 112
-40 169 -68 91 -44 116 -61 191 -137 130 -131 202 -285 235 -505 18 -127 22
-886 4 -1031 -47 -385 -255 -643 -594 -737 -77 -21 -101 -22 -567 -26 l-488
-3 0 1266 0 1266 493 -3 c433 -4 500 -6 557 -22z m2631 -900 c230 -505 420
-920 422 -922 2 -3 195 412 428 921 l424 925 103 0 102 0 0 -1265 0 -1265
-110 0 -110 0 -2 1009 -3 1008 -370 -806 -371 -806 -88 0 -87 0 -372 812 -372
811 -3 -1014 -2 -1014 -105 0 -105 0 0 1265 0 1266 102 -3 102 -3 417 -919z
m3429 819 l0 -105 -595 0 -595 0 0 -470 0 -470 428 -2 427 -3 0 -95 0 -95
-427 -3 -428 -2 0 -485 0 -485 595 0 595 0 0 -105 0 -105 -700 0 -700 0 0
1265 0 1265 700 0 700 0 0 -105z m1511 77 c232 -66 392 -196 489 -396 98 -202
114 -334 107 -918 -5 -446 -9 -486 -58 -638 -44 -133 -96 -218 -199 -321 -78
-78 -110 -103 -180 -137 -172 -85 -181 -86 -727 -90 l-483 -3 0 1266 0 1266
488 -4 c462 -3 491 -5 563 -25z m1289 -1237 l0 -1265 -110 0 -110 0 0 1265 0
1265 110 0 110 0 0 -1265z m1911 5 c241 -690 438 -1259 439 -1263 0 -4 -51 -6
-112 -5 l-113 3 -42 125 c-24 69 -73 212 -109 318 l-66 192 -566 -2 -565 -3
-111 -317 -111 -318 -112 0 -112 0 53 153 c170 481 838 2363 843 2369 2 5 59
7 125 6 l121 -3 438 -1255z m397 1223 c3 -21 -1 -23 -37 -23 l-41 0 0 -141 c0
-140 0 -140 -22 -137 -22 3 -23 6 -26 141 l-3 137 -39 0 c-32 0 -40 4 -40 18
0 10 3 22 7 26 4 4 50 5 103 4 90 -3 95 -4 98 -25z m136 -70 c21 -51 42 -93
46 -93 4 0 25 42 46 93 35 80 43 92 64 92 l25 0 0 -160 c0 -158 0 -160 -22
-163 -23 -3 -23 -1 -24 105 l-1 108 -36 -77 c-23 -52 -41 -78 -52 -78 -11 0
-29 26 -52 78 l-36 77 -1 -107 c-1 -101 -2 -108 -21 -108 -19 0 -20 7 -20 166
0 165 0 165 22 162 18 -2 31 -23 62 -95z"/>
<path d="M14581 21784 c-175 -47 -297 -178 -336 -359 -21 -100 -22 -1067 -1
-1167 32 -147 116 -261 237 -322 90 -45 164 -60 269 -53 152 9 276 71 356 180
99 134 106 195 102 833 -4 435 -6 507 -21 558 -65 221 -237 347 -472 345 -44
0 -104 -7 -134 -15z"/>
<path d="M16663 21785 c-165 -45 -276 -156 -330 -330 -17 -55 -18 -105 -18
-615 0 -605 0 -601 60 -720 139 -275 568 -325 784 -92 54 58 97 146 117 242
22 108 16 1109 -8 1186 -53 176 -181 298 -346 333 -71 15 -195 13 -259 -4z"/>
<path d="M18470 20836 l0 -926 235 0 c176 0 255 4 313 16 190 39 303 155 365
372 21 74 22 95 22 537 0 417 -2 467 -19 530 -54 203 -162 324 -332 371 -45
12 -122 17 -321 21 l-263 6 0 -927z"/>
<path d="M25900 20835 l0 -1055 319 0 c366 0 432 8 551 67 149 73 254 213 307
411 27 96 27 100 31 526 5 538 -5 622 -88 793 -55 112 -132 189 -242 242 -127
62 -202 71 -569 71 l-309 0 0 -1055z"/>
<path d="M29113 21123 c-139 -394 -251 -718 -249 -720 1 -2 228 -2 503 -1
l500 3 -245 718 c-135 394 -248 717 -251 717 -3 0 -119 -323 -258 -717z"/>
</g>
</svg>
